<mxfile host="app.diagrams.net" agent="Mozilla/5.0 (Windows NT 10.0; Win64; x64) AppleWebKit/537.36 (KHTML, like Gecko) Chrome/131.0.0.0 Safari/537.36" version="25.0.3">
  <diagram name="Page-1" id="UkHIu0SWDCht5T8zP9kd">
    <mxGraphModel dx="1900" dy="562" grid="1" gridSize="10" guides="1" tooltips="1" connect="1" arrows="1" fold="1" page="1" pageScale="1" pageWidth="850" pageHeight="1100" math="0" shadow="0">
      <root>
        <mxCell id="0" />
        <mxCell id="1" parent="0" />
        <mxCell id="hmutx1Yc8w6KiIObskwx-3" value="&lt;font style=&quot;font-size: 23px;&quot;&gt;&lt;span&gt;Admin&lt;/span&gt;&lt;/font&gt;" style="rounded=0;whiteSpace=wrap;html=1;fontStyle=0" parent="1" vertex="1">
          <mxGeometry x="720" y="220" width="120" height="60" as="geometry" />
        </mxCell>
        <mxCell id="hmutx1Yc8w6KiIObskwx-4" value="&lt;font style=&quot;font-size: 23px;&quot;&gt;Student&lt;/font&gt;" style="rounded=0;whiteSpace=wrap;html=1;" parent="1" vertex="1">
          <mxGeometry x="-40" y="230" width="120" height="60" as="geometry" />
        </mxCell>
        <mxCell id="hmutx1Yc8w6KiIObskwx-5" value="&lt;font&gt;&lt;b&gt;Library Management System&lt;/b&gt;&lt;/font&gt;" style="ellipse;whiteSpace=wrap;html=1;aspect=fixed;fontFamily=Helvetica;fontSize=25;" parent="1" vertex="1">
          <mxGeometry x="360" y="160" width="200" height="200" as="geometry" />
        </mxCell>
        <mxCell id="hmutx1Yc8w6KiIObskwx-6" value="&lt;font style=&quot;font-size: 12px;&quot;&gt;&lt;b&gt;Request (Login,Search, Borrow, Return)&lt;/b&gt;&lt;/font&gt;" style="endArrow=classic;html=1;rounded=0;exitX=1;exitY=0.25;exitDx=0;exitDy=0;entryX=-0.002;entryY=0.422;entryDx=0;entryDy=0;entryPerimeter=0;labelBorderColor=none;textShadow=0;labelPosition=center;verticalLabelPosition=middle;align=center;verticalAlign=middle;spacingLeft=0;spacingRight=0;spacingBottom=0;" parent="1" edge="1" source="hmutx1Yc8w6KiIObskwx-4">
          <mxGeometry x="-0.016" y="15" width="50" height="50" relative="1" as="geometry">
            <mxPoint x="142" y="245" as="sourcePoint" />
            <mxPoint x="361.5999999999999" y="244.39999999999998" as="targetPoint" />
            <mxPoint as="offset" />
          </mxGeometry>
        </mxCell>
        <mxCell id="hmutx1Yc8w6KiIObskwx-7" value="&lt;font style=&quot;font-size: 14px;&quot;&gt;&lt;b&gt;Book Issued, Authentication result&lt;/b&gt;&lt;/font&gt;" style="endArrow=classic;html=1;rounded=0;entryX=1;entryY=0.75;entryDx=0;entryDy=0;exitX=0.006;exitY=0.562;exitDx=0;exitDy=0;exitPerimeter=0;" parent="1" source="hmutx1Yc8w6KiIObskwx-5" target="hmutx1Yc8w6KiIObskwx-4" edge="1">
          <mxGeometry x="0.0099" y="13" width="50" height="50" relative="1" as="geometry">
            <mxPoint x="321.20000000000005" y="276" as="sourcePoint" />
            <mxPoint x="180" y="277" as="targetPoint" />
            <mxPoint as="offset" />
          </mxGeometry>
        </mxCell>
        <mxCell id="hmutx1Yc8w6KiIObskwx-9" value="&lt;b&gt;Read and Write&lt;/b&gt;" style="text;html=1;align=center;verticalAlign=middle;resizable=0;points=[];autosize=1;strokeColor=none;fillColor=none;" parent="1" vertex="1">
          <mxGeometry x="705" y="280" width="110" height="30" as="geometry" />
        </mxCell>
        <mxCell id="hmutx1Yc8w6KiIObskwx-10" value="" style="endArrow=classic;html=1;rounded=0;exitX=0;exitY=0.14;exitDx=0;exitDy=0;entryX=0.968;entryY=0.346;entryDx=0;entryDy=0;entryPerimeter=0;exitPerimeter=0;" parent="1" source="hmutx1Yc8w6KiIObskwx-3" target="hmutx1Yc8w6KiIObskwx-5" edge="1">
          <mxGeometry width="50" height="50" relative="1" as="geometry">
            <mxPoint x="700" y="230" as="sourcePoint" />
            <mxPoint x="562.8000000000002" y="231.60000000000002" as="targetPoint" />
          </mxGeometry>
        </mxCell>
        <mxCell id="wOcpC7h_hzxmkCH-UHlY-1" value="Book Management Request" style="edgeLabel;html=1;align=center;verticalAlign=middle;resizable=0;points=[];fontStyle=1" vertex="1" connectable="0" parent="hmutx1Yc8w6KiIObskwx-10">
          <mxGeometry x="-0.0493" y="1" relative="1" as="geometry">
            <mxPoint y="-11" as="offset" />
          </mxGeometry>
        </mxCell>
        <mxCell id="hmutx1Yc8w6KiIObskwx-12" value="" style="endArrow=none;html=1;rounded=0;entryX=1;entryY=0;entryDx=0;entryDy=0;exitX=0;exitY=0;exitDx=0;exitDy=0;" parent="1" source="hmutx1Yc8w6KiIObskwx-5" target="hmutx1Yc8w6KiIObskwx-5" edge="1">
          <mxGeometry width="50" height="50" relative="1" as="geometry">
            <mxPoint x="460" y="130" as="sourcePoint" />
            <mxPoint x="510" y="80" as="targetPoint" />
          </mxGeometry>
        </mxCell>
        <mxCell id="hmutx1Yc8w6KiIObskwx-13" value="&lt;b&gt;0.0&lt;/b&gt;" style="text;html=1;align=center;verticalAlign=middle;resizable=0;points=[];autosize=1;strokeColor=none;fillColor=none;" parent="1" vertex="1">
          <mxGeometry x="440" y="160" width="40" height="30" as="geometry" />
        </mxCell>
        <mxCell id="wOcpC7h_hzxmkCH-UHlY-3" value="" style="endArrow=classic;html=1;rounded=0;entryX=0;entryY=0.75;entryDx=0;entryDy=0;" edge="1" parent="1" source="hmutx1Yc8w6KiIObskwx-5" target="hmutx1Yc8w6KiIObskwx-3">
          <mxGeometry width="50" height="50" relative="1" as="geometry">
            <mxPoint x="562" y="265" as="sourcePoint" />
            <mxPoint x="730" y="260" as="targetPoint" />
          </mxGeometry>
        </mxCell>
        <mxCell id="wOcpC7h_hzxmkCH-UHlY-4" value="&lt;b&gt;Reports&lt;/b&gt;" style="edgeLabel;html=1;align=center;verticalAlign=middle;resizable=0;points=[];" vertex="1" connectable="0" parent="wOcpC7h_hzxmkCH-UHlY-3">
          <mxGeometry x="-0.0493" y="1" relative="1" as="geometry">
            <mxPoint y="16" as="offset" />
          </mxGeometry>
        </mxCell>
        <mxCell id="wOcpC7h_hzxmkCH-UHlY-6" value="" style="curved=1;endArrow=classic;html=1;rounded=0;exitX=0;exitY=1;exitDx=0;exitDy=0;entryX=0.75;entryY=1;entryDx=0;entryDy=0;" edge="1" parent="1" source="hmutx1Yc8w6KiIObskwx-5" target="hmutx1Yc8w6KiIObskwx-4">
          <mxGeometry width="50" height="50" relative="1" as="geometry">
            <mxPoint x="400" y="320" as="sourcePoint" />
            <mxPoint x="450" y="270" as="targetPoint" />
            <Array as="points">
              <mxPoint x="160" y="440" />
            </Array>
          </mxGeometry>
        </mxCell>
        <mxCell id="wOcpC7h_hzxmkCH-UHlY-7" value="Fine Notification" style="edgeLabel;html=1;align=center;verticalAlign=middle;resizable=0;points=[];fontStyle=1" vertex="1" connectable="0" parent="wOcpC7h_hzxmkCH-UHlY-6">
          <mxGeometry x="-0.1117" y="-44" relative="1" as="geometry">
            <mxPoint x="-1" y="15" as="offset" />
          </mxGeometry>
        </mxCell>
      </root>
    </mxGraphModel>
  </diagram>
</mxfile>
